<svg version="1.2" xmlns="http://www.w3.org/2000/svg" viewBox="0 0 166 181" width="80" height="87">
	<title>iStock-1391261877-ai</title>
	<style>
		.s0 { fill: none;stroke: #011520;stroke-linecap: round;stroke-width: 4 } 
		.s1 { fill: none;stroke: #011520;stroke-linejoin: round;stroke-width: 4 } 
	</style>
	<g id="Icons">
		<g id="&lt;Group&gt;">
			<path id="&lt;Path&gt;" class="s0" d="m79.7 23.4l2.9 6.8"/>
			<path id="&lt;Path&gt;" class="s0" d="m120.5 68.5l7.4 3.1"/>
			<path id="&lt;Path&gt;" class="s0" d="m120.6 46.2l7.3-3"/>
			<path id="&lt;Path&gt;" class="s0" d="m59.1 42.9l7.4 3.1"/>
			<path id="&lt;Path&gt;" class="s0" d="m59.4 71.2l7.3-2.9"/>
			<path id="&lt;Path&gt;" class="s0" d="m107.6 23.4l-2.9 6.8"/>
			<path id="&lt;Path&gt;" class="s1" d="m99.7 82.5c20.1-4.6 32.6 6.9 32.8 17.1 0.1 3.7-1 5.9-3 7 3.6 5.3 0.8 10.7-2.1 12.5 2.6 4.2 2 9.9-2.6 12.6 1.3 3 0.5 6.6-1.7 10.3-7.3 12.2-29.7 12.9-46.6 9.7-22.6-4.2-33.2-3.9-33.2-3.9"/>
			<path id="&lt;Path&gt;" class="s1" d="m43.3 103.3c4 0 11.4-1.6 15.3-3.3 7.3-3.1 15.6-8.1 21.2-23.7 4.5-12.4 5.1-18.9 5.8-23.1 0.5-3.2 0.1-5.7 2.8-6.5 0.5-0.2 1.9-0.2 2.5-0.2 3.1 0 6.7 1.7 9.5 5.6 2.5 3.4 4.7 9.7 1.4 20.2-2.9 9-2.5 14-1.9 16 1.4 4.8 8.4 8.3 16.8 7.2"/>
		</g>
	</g>
</svg>