<svg version="1.2" xmlns="http://www.w3.org/2000/svg" viewBox="0 0 206 236" width="30" height="34">
	<title>iStock-876512066-ai</title>
	<style>
		.s0 { fill: #414042 } 
		.s1 { fill: #fc2130 } 
		.s2 { fill: #ffffff } 
	</style>
	<g id="Layer 1">
		<g id="&lt;Group&gt;">
			<g id="&lt;Group&gt;">
				<g id="&lt;Group&gt;">
					<path id="&lt;Compound Path&gt;" fill-rule="evenodd" class="s0" d="m206.2 49.8v186.2h-178.6v-233.9h136.9zm-12.1 15.6h-47.1v-51.1h-107.3v209.6h154.4zm-34.9-50.9v38.7h33.9z"/>
				</g>
				<path id="&lt;Path&gt;" class="s1" d="m123.2 101h-121.3v-56.5h121.3z"/>
				<path id="&lt;Path&gt;" class="s0" d="m171.1 139.5h-110.3v-12.4h110.3z"/>
				<path id="&lt;Path&gt;" class="s0" d="m171.1 165.9h-110.3v-12.4h110.3z"/>
				<path id="&lt;Path&gt;" class="s0" d="m171.1 192.4h-110.3v-12.5h110.3z"/>
				<g id="&lt;Group&gt;">
					<path id="&lt;Compound Path&gt;" fill-rule="evenodd" class="s2" d="m38.2 60.2c6 0 10.2 2.8 10.2 8.9 0 6.1-4.3 8.9-9.8 8.9h-6.3v9.9h-6v-27.7zm-5.9 13h5.4c2.7 0 4.7-0.9 4.7-4 0-3-2-4-4.7-4h-5.4z"/>
					<path id="&lt;Compound Path&gt;" fill-rule="evenodd" class="s2" d="m52.3 60.2h11.2c8.6 0 13.4 4.9 13.4 13.9 0 8.9-4.8 13.8-13.4 13.8h-11.2zm10.5 22.7c5.5 0 8-3.2 8-8.8 0-5.6-2.5-8.8-8-8.8h-4.5v17.6z"/>
					<path id="&lt;Compound Path&gt;" class="s2" d="m100.7 65.3h-13.5v6.4h11.7v4.9h-11.7v11.3h-6.1v-27.7h19.6z"/>
				</g>
			</g>
		</g>
	</g>
</svg>