<svg version="1.2" xmlns="http://www.w3.org/2000/svg" viewBox="0 0 100 113" width="100" height="113">
	<title>iStock-1179804740-ai</title>
	<style>
		.s0 { fill: #ffffff } 
		.s1 { fill: #28a3cc } 
		.s2 { fill: #238fb3 } 
		.s3 { fill: none;stroke: #262626;stroke-linecap: round;stroke-linejoin: round;stroke-width: 4 } 
	</style>
	<g id="Background" style="display: none">
		<path id="&lt;Path&gt;" class="s0" d="m548 736h-996v-960h996z"/>
	</g>
	<g id="Top Bar">
		<path id="&lt;Path&gt;" class="s1" d="m548-80h-996v-144h996z"/>
		<path id="&lt;Path&gt;" class="s2" d="m-304-80h-144v-144h144z"/>
		<g id="&lt;Group&gt;">
			<path id="&lt;Compound Path&gt;" fill-rule="evenodd" class="s0" d="m-254.1-167h13.8q4.1 0 6.6 1.1 2.5 1.1 4.2 3.2 1.6 2 2.4 4.8 0.7 2.7 0.7 5.8 0 4.8-1.1 7.5-1.1 2.6-3 4.4-2 1.8-4.2 2.4-3.1 0.8-5.6 0.8h-13.8zm9.3 6.8v16.5h2.3q2.9 0 4.1-0.7 1.3-0.6 2-2.2 0.7-1.6 0.7-5.3 0-4.7-1.6-6.5-1.6-1.8-5.2-1.8z"/>
			<path id="&lt;Compound Path&gt;" fill-rule="evenodd" class="s0" d="m-222.7-152q0-7.3 4.1-11.4 4.1-4.1 11.4-4.1 7.5 0 11.6 4 4.1 4 4.1 11.3 0 5.2-1.8 8.6-1.8 3.4-5.1 5.3-3.4 1.8-8.4 1.8-5.1 0-8.4-1.6-3.4-1.6-5.4-5.1-2.1-3.5-2.1-8.8zm9.3 0.1q0 4.5 1.7 6.5 1.7 2 4.6 2 3 0 4.6-2 1.7-1.9 1.7-6.9 0-4.3-1.7-6.3-1.8-1.9-4.7-1.9-2.8 0-4.5 2-1.7 2-1.7 6.6z"/>
			<path id="&lt;Compound Path&gt;" class="s0" d="m-166.5-149.3l8.1 2.5q-0.8 3.4-2.6 5.7-1.7 2.3-4.3 3.5-2.7 1.1-6.7 1.1-4.9 0-8-1.4-3.1-1.4-5.4-5-2.2-3.6-2.2-9.2 0-7.4 3.9-11.4 4-4 11.3-4 5.7 0 8.9 2.3 3.3 2.2 4.8 7l-8.2 1.8q-0.4-1.3-0.9-2-0.8-1-1.9-1.6-1.1-0.6-2.5-0.6-3.2 0-4.8 2.5-1.3 1.9-1.3 6 0 5 1.5 6.8 1.5 1.9 4.3 1.9 2.6 0 4-1.5 1.4-1.5 2-4.4z"/>
			<path id="&lt;Compound Path&gt;" class="s0" d="m-134.3-167h9.3v17.9q0 2.6-0.9 5-0.8 2.4-2.6 4.2-1.7 1.7-3.7 2.4-2.7 1-6.5 1-2.2 0-4.8-0.3-2.6-0.3-4.3-1.2-1.8-0.9-3.2-2.6-1.5-1.7-2-3.4-0.8-2.9-0.8-5.1v-17.9h9.2v18.3q0 2.5 1.4 3.8 1.3 1.4 3.8 1.4 2.4 0 3.7-1.3 1.4-1.4 1.4-3.9z"/>
			<path id="&lt;Compound Path&gt;" class="s0" d="m-119-167h12.2l4.7 18.3 4.7-18.3h12.2v30h-7.6v-22.9l-5.8 22.9h-6.9l-5.9-22.9v22.9h-7.6z"/>
			<path id="&lt;Compound Path&gt;" class="s0" d="m-79.3-167h24.9v6.4h-15.6v4.8h14.5v6.1h-14.5v5.9h16.1v6.8h-25.4z"/>
			<path id="&lt;Compound Path&gt;" class="s0" d="m-48.8-167h8.6l11.3 16.6v-16.6h8.8v30h-8.8l-11.2-16.5v16.5h-8.7z"/>
			<path id="&lt;Compound Path&gt;" class="s0" d="m-16-167h28.2v7.4h-9.5v22.6h-9.3v-22.6h-9.4z"/>
		</g>
		<g id="&lt;Group&gt;">
			<path id="&lt;Compound Path&gt;" class="s0" d="m-398.7-167h19.8v6.6h-13.4l-0.8 4.5q1.4-0.6 2.8-0.9 1.4-0.4 2.7-0.4 4.5 0 7.3 2.8 2.8 2.7 2.8 6.8 0 2.9-1.4 5.6-1.5 2.7-4.1 4.1-2.7 1.4-6.8 1.4-3 0-5.1-0.5-2.1-0.6-3.6-1.7-1.5-1.1-2.4-2.5-1-1.4-1.6-3.6l8.5-0.9q0.3 2 1.4 3.1 1.1 1.1 2.7 1.1 1.7 0 2.9-1.4 1.1-1.3 1.1-3.9 0-2.7-1.1-3.9-1.2-1.3-3.1-1.3-1.2 0-2.3 0.6-0.9 0.4-1.9 1.6l-7.1-1.1z"/>
			<path id="&lt;Compound Path&gt;" fill-rule="evenodd" class="s0" d="m-374.1-152.1q0-8.6 3.1-12 3.1-3.4 9.4-3.4 3 0 5 0.7 1.9 0.8 3.1 2 1.3 1.2 2 2.5 0.7 1.3 1.1 3.1 0.9 3.3 0.9 7 0 8.2-2.8 12-2.8 3.7-9.5 3.7-3.8 0-6.2-1.2-2.3-1.2-3.8-3.5-1.1-1.7-1.7-4.6-0.6-2.8-0.6-6.3zm8.3 0q0 5.7 1 7.8 1 2.1 2.9 2.1 1.3 0 2.2-0.8 1-0.9 1.4-2.9 0.5-1.9 0.5-6 0-6-1.1-8-1-2.1-3-2.1-2.1 0-3 2.1-0.9 2.1-0.9 7.8z"/>
		</g>
	</g>
	<g id="Icons">
		<g id="&lt;Group&gt;">
			<g id="&lt;Group&gt;">
				<g id="&lt;Group&gt;">
					<path id="&lt;Path&gt;" class="s3" d="m248 570h20v68c0 4.4-3.6 8-8 8h-60c-4.4 0-8-3.6-8-8v-80c0-4.4 3.6-8 8-8h48z"/>
					<path id="&lt;Path&gt;" class="s3" d="m268 570h-20v-20z"/>
				</g>
			</g>
			<g id="&lt;Group&gt;">
				<path id="&lt;Path&gt;" class="s3" d="m206 625.2v-43h48v43z"/>
				<path id="&lt;Path&gt;" class="s3" d="m206 625.2l16.9-16.9 17 16.9z"/>
				<path id="&lt;Path&gt;" class="s3" d="m254 625.2h-14.1l-7.1-7.1 7.1-7z"/>
				<path id="&lt;Path&gt;" class="s3" d="m237.1 596.6c0 3.2-2.6 5.7-5.7 5.7-3.1 0-5.6-2.5-5.6-5.7 0-3.1 2.5-5.6 5.6-5.6 3.1 0 5.7 2.5 5.7 5.6z"/>
			</g>
		</g>
		<g id="&lt;Group&gt;">
			<g id="&lt;Group&gt;">
				<path id="&lt;Path&gt;" class="s3" d="m85.4 570h-20v-20z"/>
				<path id="&lt;Path&gt;" class="s3" d="m71.2 627.1l14.2-14.2v25.1c0 4.4-3.5 8-8 8h-60c-4.4 0-8-3.6-8-8v-80c0-4.4 3.6-8 8-8h48v20h20v21.1l-25.1 25.1-4 14.9z"/>
				<g id="&lt;Group&gt;">
					<path id="&lt;Path&gt;" class="s3" d="m47.4 618h-22q0 0 0 0 0 0 0 0h22q0.1 0 0.1 0 0 0-0.1 0z"/>
					<path id="&lt;Path&gt;" class="s3" d="m55.4 606h-30q0 0 0 0 0 0 0 0h30q0.1 0 0.1 0 0 0-0.1 0z"/>
					<path id="&lt;Path&gt;" class="s3" d="m69.4 594h-44q0 0 0 0 0 0 0 0h44q0.1 0 0.1 0 0 0-0.1 0z"/>
					<path id="&lt;Path&gt;" class="s3" d="m69.4 582h-44q0 0 0 0 0 0 0 0h44q0.1 0 0.1 0 0 0-0.1 0z"/>
				</g>
			</g>
			<g id="&lt;Group&gt;">
				<path id="&lt;Path&gt;" class="s3" d="m89.1 587.5l10.9 10.8-28.8 28.8-10.9-10.9z"/>
				<path id="&lt;Path&gt;" class="s3" d="m89.1 587.5l5.5-5.5c1.4-1.5 3.9-1.5 5.4 0l5.4 5.5c1.5 1.5 1.5 3.9 0 5.4l-5.4 5.4z"/>
				<path id="&lt;Path&gt;" class="s3" d="m60.3 616.2l10.9 10.9-14.9 4z"/>
			</g>
		</g>
		<g id="&lt;Group&gt;">
			<g id="&lt;Group&gt;">
				<path id="&lt;Path&gt;" class="s3" d="m-112 570h20v68c0 4.4-3.6 8-8 8h-60c-4.4 0-8-3.6-8-8v-80c0-4.4 3.6-8 8-8h48z"/>
				<path id="&lt;Path&gt;" class="s3" d="m-92 570h-20v-20z"/>
			</g>
			<g id="&lt;Group&gt;">
				<g id="&lt;Group&gt;">
					<path id="&lt;Path&gt;" class="s3" d="m-108 618h-44q0 0 0 0 0 0 0 0h44q0 0 0 0 0 0 0 0z"/>
					<path id="&lt;Path&gt;" class="s3" d="m-108 606h-44q0 0 0 0 0 0 0 0h44q0 0 0 0 0 0 0 0z"/>
					<path id="&lt;Path&gt;" class="s3" d="m-108 594h-20q0 0 0 0 0 0 0 0h20q0 0 0 0 0 0 0 0z"/>
					<path id="&lt;Path&gt;" class="s3" d="m-108 582h-20q0 0 0 0 0 0 0 0h20q0 0 0 0 0 0 0 0z"/>
				</g>
				<path id="&lt;Path&gt;" class="s3" d="m-138 594h-14v-12h14z"/>
			</g>
		</g>
		<g id="&lt;Group&gt;">
			<g id="&lt;Group&gt;">
				<path id="&lt;Path&gt;" class="s3" d="m-276 566h-20v-20z"/>
				<path id="&lt;Path&gt;" class="s3" d="m-302.7 642h-41.3c-4.4 0-8-3.6-8-8v-80c0-4.4 3.6-8 8-8h48v20h20v49.3c-3.2-6.7-10.1-11.3-18-11.3-11 0-20 9-20 20 0 7.9 4.6 14.8 11.3 18z"/>
				<g id="&lt;Group&gt;">
					<path id="&lt;Path&gt;" class="s3" d="m-322 614h-14q0 0 0 0 0 0 0 0h14q0 0 0 0 0 0 0 0z"/>
					<path id="&lt;Path&gt;" class="s3" d="m-314 602h-22q0 0 0 0 0 0 0 0h22q0 0 0 0 0 0 0 0z"/>
					<path id="&lt;Path&gt;" class="s3" d="m-292 590h-44q0 0 0 0 0 0 0 0h44q0 0 0 0 0 0 0 0z"/>
					<path id="&lt;Path&gt;" class="s3" d="m-292 578h-44q0 0 0 0 0 0 0 0h44q0 0 0 0 0 0 0 0z"/>
				</g>
			</g>
			<g id="&lt;Group&gt;">
				<path id="&lt;Path&gt;" class="s3" d="m-294 604c11 0 20 9 20 20 0 11-9 20-20 20-11 0-20-9-20-20 0-11 9-20 20-20z"/>
				<path id="&lt;Path&gt;" class="s3" d="m-269.5 648.5c-1.9 2-5.1 2-7 0l-7.4-7.3c3-1.7 5.4-4.1 7.1-7.1l7.3 7.4c2 1.9 2 5.1 0 7z"/>
			</g>
		</g>
		<g id="&lt;Group&gt;">
			<g id="&lt;Group&gt;">
				<g id="&lt;Group&gt;">
					<path id="&lt;Path&gt;" class="s3" d="m248 390h20v68c0 4.4-3.6 8-8 8h-60c-4.4 0-8-3.6-8-8v-80c0-4.4 3.6-8 8-8h48z"/>
					<path id="&lt;Path&gt;" class="s3" d="m268 390h-20v-20z"/>
				</g>
			</g>
			<g id="&lt;Group&gt;">
				<path id="&lt;Path&gt;" class="s3" d="m252 450h-44q0 0 0 0v-52c0 0 0 0 0 0v52h44q0 0 0 0 0 0 0 0z"/>
				<path id="&lt;Path&gt;" class="s3" d="m208 450q0 0 0 0c0-0.1 1-6.6 3.2-13 1.3-3.8 2.8-6.8 4.4-8.9 1.9-2.8 4.1-4.1 6.4-4.1 4.1 0 5.9 3.7 7.6 7.3 1.5 3.5 3 6.7 6.4 6.7 3.4 0 5.8-1.9 7.3-5.8 1.4-3.4 1.9-7.9 2.4-12.2 0.9-7.2 1.7-14 6.3-14q0 0 0 0 0 0 0 0c-4.6 0-5.4 6.8-6.2 14-0.6 4.3-1.1 8.8-2.5 12.2-1.5 3.9-3.9 5.8-7.3 5.8-3.4 0-4.9-3.2-6.5-6.6-1.7-3.7-3.4-7.4-7.5-7.4-2.3 0-4.4 1.4-6.4 4.1-1.6 2.1-3 5.1-4.3 8.9-2.3 6.4-3.3 12.9-3.3 13q0 0 0 0z"/>
			</g>
		</g>
		<g id="&lt;Group&gt;">
			<g id="&lt;Group&gt;">
				<path id="&lt;Path&gt;" class="s3" d="m68 390h20v68c0 4.4-3.6 8-8 8h-60c-4.4 0-8-3.6-8-8v-80c0-4.4 3.6-8 8-8h48z"/>
				<path id="&lt;Path&gt;" class="s3" d="m88 390h-20v-20z"/>
			</g>
			<g id="&lt;Group&gt;">
				<g id="&lt;Group&gt;">
					<path id="&lt;Path&gt;" class="s3" d="m29.4 406.7l-3.4-3.4 0.1-0.2 3.3 3.3 6.6-6.6 0.1 0.1z"/>
					<path id="&lt;Path&gt;" class="s3" d="m74 403.3h-26v-0.2h26z"/>
				</g>
				<g id="&lt;Group&gt;">
					<path id="&lt;Path&gt;" class="s3" d="m36 428.2h-10v-10h10z"/>
					<path id="&lt;Path&gt;" class="s3" d="m74 423.3h-26v-0.2h26z"/>
				</g>
				<g id="&lt;Group&gt;">
					<path id="&lt;Path&gt;" class="s3" d="m36 448.2h-10v-10h10z"/>
					<path id="&lt;Path&gt;" class="s3" d="m74 443.3h-26v-0.2h26z"/>
				</g>
			</g>
		</g>
		<g id="&lt;Group&gt;">
			<g id="&lt;Group&gt;">
				<path id="&lt;Path&gt;" class="s3" d="m-112 390h20v68c0 4.4-3.6 8-8 8h-60c-4.4 0-8-3.6-8-8v-80c0-4.4 3.6-8 8-8h48z"/>
				<path id="&lt;Path&gt;" class="s3" d="m-92 390h-20v-20z"/>
			</g>
			<path id="&lt;Path&gt;" class="s3" d="m-134.6 437c-1.5 0-2.8-0.6-3.8-1.6l-10-10c-1-1-1.6-2.4-1.6-3.8 0-1.4 0.6-2.7 1.6-3.8 1-1 2.3-1.5 3.7-1.5 1.5 0 2.8 0.5 3.8 1.5l6.3 6.3 15.5-15.5c1-1 2.3-1.6 3.8-1.6 1.4 0 2.7 0.6 3.7 1.6 1 1 1.6 2.3 1.6 3.8 0 1.4-0.6 2.7-1.6 3.7l-19.3 19.3c-1 1-2.3 1.6-3.7 1.6z"/>
		</g>
		<g id="&lt;Group&gt;">
			<g id="&lt;Group&gt;">
				<path id="&lt;Path&gt;" class="s3" d="m-292 390h20v68c0 4.4-3.6 8-8 8h-60c-4.4 0-8-3.6-8-8v-80c0-4.4 3.6-8 8-8h48z"/>
				<path id="&lt;Path&gt;" class="s3" d="m-272 390h-20v-20z"/>
			</g>
			<g id="&lt;Group&gt;">
				<path id="&lt;Path&gt;" class="s3" d="m-288 448h-44q0 0 0 0 0 0 0 0h44q0 0 0 0 0 0 0 0z"/>
				<g id="&lt;Group&gt;">
					<path id="&lt;Path&gt;" class="s3" d="m-321 438h-11v-16h11z"/>
					<path id="&lt;Path&gt;" class="s3" d="m-310 438h-11v-28h11z"/>
					<path id="&lt;Path&gt;" class="s3" d="m-299 438h-11v-22h11z"/>
					<path id="&lt;Path&gt;" class="s3" d="m-288 438h-11v-36h11z"/>
				</g>
			</g>
		</g>
		<g id="&lt;Group&gt;">
			<g id="&lt;Group&gt;">
				<g id="&lt;Group&gt;">
					<g id="&lt;Group&gt;">
						<path id="&lt;Path&gt;" class="s3" d="m280.2 203.1h-17.5v-4.4c0-4.8 3.9-8.7 8.8-8.7 4.8 0 8.7 3.9 8.7 8.7z"/>
						<path id="&lt;Path&gt;" class="s3" d="m254 286h-65.5c-4.8 0-8.7-3.9-8.7-8.7v-4.4h65.5v4.4c0 4.8 3.9 8.7 8.7 8.7z"/>
						<path id="&lt;Path&gt;" class="s3" d="m271.5 190c-4.9 0-8.8 3.9-8.8 8.7v4.4 74.2c0 4.8-3.9 8.7-8.7 8.7-4.8 0-8.7-3.9-8.7-8.7v-4.4h-52.4v-69.8c0-7.2 5.9-13.1 13.1-13.1z"/>
					</g>
				</g>
			</g>
			<g id="&lt;Group&gt;">
				<path id="&lt;Path&gt;" class="s3" d="m245.3 214h-34.9q-0.1 0-0.1 0 0 0 0.1 0h34.9q0 0 0 0 0 0 0 0z"/>
				<path id="&lt;Path&gt;" class="s3" d="m245.3 227.1h-34.9q-0.1 0-0.1 0 0 0 0.1 0h34.9q0 0 0 0 0 0 0 0z"/>
				<path id="&lt;Path&gt;" class="s3" d="m245.3 240.2h-34.9q-0.1 0-0.1 0 0 0 0.1 0h34.9q0 0 0 0 0 0 0 0z"/>
				<path id="&lt;Path&gt;" class="s3" d="m227.8 253.3h-17.4q-0.1 0-0.1 0 0 0 0.1 0h17.4q0 0 0 0 0 0 0 0z"/>
			</g>
		</g>
		<g id="&lt;Group&gt;">
			<g id="&lt;Group&gt;">
				<path id="&lt;Path&gt;" class="s3" d="m78 220h20v68c0 4.4-3.6 8-8 8h-60c-4.4 0-8-3.6-8-8v-80c0-4.4 3.6-8 8-8h48z"/>
				<path id="&lt;Path&gt;" class="s3" d="m98 220h-20v-20z"/>
			</g>
			<path id="&lt;Path&gt;" class="s3" d="m78 200h-10-38c-4.4 0-8 3.6-8 8v78h-2c-4.4 0-8-3.6-8-8v-80c0-4.4 3.6-8 8-8h48z"/>
			<path id="&lt;Path&gt;" class="s3" d="m68 190h-10-38c-4.4 0-8 3.6-8 8v78h-2c-4.4 0-8-3.6-8-8v-80c0-4.4 3.6-8 8-8h48z"/>
			<g id="&lt;Group&gt;">
				<path id="&lt;Path&gt;" class="s3" d="m82 268h-44q0 0 0 0 0 0 0 0h44q0 0 0 0 0 0 0 0z"/>
				<path id="&lt;Path&gt;" class="s3" d="m82 256h-44q0 0 0 0 0 0 0 0h44q0 0 0 0 0 0 0 0z"/>
				<path id="&lt;Path&gt;" class="s3" d="m82 244h-44q0 0 0 0 0 0 0 0h44q0 0 0 0 0 0 0 0z"/>
				<path id="&lt;Path&gt;" class="s3" d="m82 232h-44q0 0 0 0 0 0 0 0h44q0 0 0 0 0 0 0 0z"/>
			</g>
		</g>
		<g id="&lt;Group&gt;">
			<g id="&lt;Group&gt;">
				<path id="&lt;Path&gt;" class="s3" d="m-107 215h20v68c0 4.4-3.6 8-8 8h-60c-4.4 0-8-3.6-8-8v-80c0-4.4 3.6-8 8-8h48z"/>
				<path id="&lt;Path&gt;" class="s3" d="m-87 215h-20v-20z"/>
			</g>
			<path id="&lt;Path&gt;" class="s3" d="m-107 195h-10-38c-4.4 0-8 3.6-8 8v78h-2c-4.4 0-8-3.6-8-8v-80c0-4.4 3.6-8 8-8h48z"/>
			<g id="&lt;Group&gt;">
				<path id="&lt;Path&gt;" class="s3" d="m-103 263h-44q0 0 0 0 0 0 0 0h44q0 0 0 0 0 0 0 0z"/>
				<path id="&lt;Path&gt;" class="s3" d="m-103 251h-44q0 0 0 0 0 0 0 0h44q0 0 0 0 0 0 0 0z"/>
				<path id="&lt;Path&gt;" class="s3" d="m-103 239h-44q0 0 0 0 0 0 0 0h44q0 0 0 0 0 0 0 0z"/>
				<path id="&lt;Path&gt;" class="s3" d="m-103 227h-44q0 0 0 0 0 0 0 0h44q0 0 0 0 0 0 0 0z"/>
			</g>
		</g>
		<g id="&lt;Group&gt;">
			<g id="&lt;Group&gt;">
				<g id="&lt;Group&gt;">
					<path id="&lt;Path&gt;" class="s3" d="m-292 210h20v68c0 4.4-3.6 8-8 8h-60c-4.4 0-8-3.6-8-8v-80c0-4.4 3.6-8 8-8h48z"/>
					<path id="&lt;Path&gt;" class="s3" d="m-272 210h-20v-20z"/>
				</g>
			</g>
			<g id="&lt;Group&gt;">
				<path id="&lt;Path&gt;" class="s3" d="m-301.1 233.4c0 4.9-4 8.9-8.9 8.9-4.9 0-8.9-4-8.9-8.9v-3.1h17.8z"/>
				<g id="&lt;Group&gt;">
					<path id="&lt;Path&gt;" class="s3" d="m-321.5 246.7h23c3.6 0 6.5 2.9 6.5 6.4v10.9h-36v-10.9c0-3.5 2.9-6.4 6.5-6.4z"/>
					<path id="&lt;Path&gt;" class="s3" d="m-319.7 264.1q0 0 0 0v-7.7c0 0 0 0 0 0v7.7q0 0 0 0z"/>
					<path id="&lt;Path&gt;" class="s3" d="m-300.3 264.1q0 0 0 0v-7.7c0 0 0 0 0 0v7.7q0 0 0 0z"/>
				</g>
				<path id="&lt;Path&gt;" class="s3" d="m-290 247.5c-0.4 2.2-1.1 4.1-2 5.8v-0.2c0-3.5-2.9-6.4-6.5-6.4h-23c-3.6 0-6.5 2.9-6.5 6.4v0.2c-0.9-1.7-1.6-3.6-2-5.8-0.2-1.4 0.5-2.9 1.9-3.5 1.7-0.8 3-2.6 3-4.6v-6.3c0-8.3 6.7-15.1 15.1-15.1 8.4 0 15.1 6.8 15.1 15.1v6.3c0 2 1.3 3.8 3 4.6 1.4 0.6 2.1 2.1 1.9 3.5z"/>
			</g>
		</g>
		<g id="&lt;Group&gt;">
			<g id="&lt;Group&gt;">
				<g id="&lt;Group&gt;">
					<path id="&lt;Path&gt;" class="s3" d="m248 30h20v68c0 4.4-3.6 8-8 8h-60c-4.4 0-8-3.6-8-8v-80c0-4.4 3.6-8 8-8h48z"/>
					<path id="&lt;Path&gt;" class="s3" d="m268 30h-20v-20z"/>
				</g>
			</g>
			<g id="&lt;Group&gt;">
				<g id="&lt;Group&gt;">
					<path id="&lt;Path&gt;" class="s3" d="m240.8 51.8c0 6-4.9 10.8-10.8 10.8-5.9 0-10.8-4.8-10.8-10.8v-4.6h21.6z"/>
					<path id="&lt;Path&gt;" class="s3" d="m219.2 47.2c0-5.1 4.2-9.2 9.3-9.2h18.4c0 5.1-4.1 9.2-9.2 9.2z"/>
				</g>
				<path id="&lt;Path&gt;" class="s3" d="m250 84.3h-40v-9.1c0-5.9 4.8-10.7 10.8-10.7h18.4c6 0 10.8 4.8 10.8 10.7z"/>
				<g id="&lt;Group&gt;">
					<path id="&lt;Path&gt;" class="s3" d="m217.4 84.4q0 0 0-0.1v-7.5c0-0.1 0-0.1 0 0v7.5q0 0.1 0 0.1z"/>
					<path id="&lt;Path&gt;" class="s3" d="m242.6 84.4q0 0 0-0.1v-7.5c0-0.1 0-0.1 0 0v7.5q0 0.1 0 0.1z"/>
				</g>
			</g>
		</g>
		<g id="&lt;Group&gt;">
			<g id="&lt;Group&gt;">
				<path id="&lt;Path&gt;" class="s3" d="m68 30h20v68c0 4.4-3.6 8-8 8h-60c-4.4 0-8-3.6-8-8v-80c0-4.4 3.6-8 8-8h48z"/>
				<path id="&lt;Path&gt;" class="s3" d="m88 30h-20v-20z"/>
			</g>
			<g id="&lt;Group&gt;">
				<path id="&lt;Path&gt;" class="s3" d="m72 86h-44q0 0 0 0 0 0 0 0h44q0 0 0 0 0 0 0 0z"/>
				<path id="&lt;Path&gt;" class="s3" d="m72 76h-44q0 0 0 0 0 0 0 0h44q0 0 0 0 0 0 0 0z"/>
			</g>
			<g id="&lt;Group&gt; 1 ">
				<path id="&lt;Path&gt;" class="s3" d="m41 39c0-5 4-9 9-9 5 0 9 4 9 9 0 5-4 9-9 9-5 0-9-4-9-9z"/>
				<path id="&lt;Path&gt;" class="s3" d="m32 62v-3.2c0-4.9 4-9 9-9h18c4.9 0 9 4.1 9 9v3.2z"/>
			</g>
		</g>
		<g id="&lt;Group&gt;">
			<g id="&lt;Group&gt;">
				<path id="&lt;Path&gt;" class="s3" d="m-112 30h20v68c0 4.4-3.6 8-8 8h-60c-4.4 0-8-3.6-8-8v-80c0-4.4 3.6-8 8-8h48z"/>
				<path id="&lt;Path&gt;" class="s3" d="m-92 30h-20v-20z"/>
			</g>
			<g id="&lt;Group&gt;">
				<path id="&lt;Path&gt;" class="s3" d="m-108 78h-44q0 0 0 0 0 0 0 0h44q0 0 0 0 0 0 0 0z"/>
				<path id="&lt;Path&gt;" class="s3" d="m-108 66h-44q0 0 0 0 0 0 0 0h44q0 0 0 0 0 0 0 0z"/>
				<path id="&lt;Path&gt;" class="s3" d="m-108 54h-44q0 0 0 0 0 0 0 0h44q0 0 0 0 0 0 0 0z"/>
				<path id="&lt;Path&gt;" class="s3" d="m-108 42h-44q0 0 0 0 0 0 0 0h44q0 0 0 0 0 0 0 0z"/>
			</g>
		</g>
		<g id="&lt;Group&gt;">
			<path id="&lt;Path&gt;" class="s3" d="m-292 30h20v68c0 4.4-3.6 8-8 8h-60c-4.4 0-8-3.6-8-8v-80c0-4.4 3.6-8 8-8h48z"/>
			<path id="&lt;Path&gt;" class="s3" d="m-272 30h-20v-20z"/>
		</g>
		<g id="&lt;Group&gt;">
			<g id="&lt;Group&gt;">
				<g id="&lt;Group&gt;">
					<path id="&lt;Path&gt;" class="s3" d="m434 554c2.2 0 4 1.8 4 4v4h-56v-4c0-2.2 1.8-4 4-4z"/>
					<path id="&lt;Path&gt;" class="s3" d="m442 610h-64v-44c0-2.2 1.8-4 4-4h56c2.2 0 4 1.8 4 4z"/>
					<g id="&lt;Group&gt;">
						<path id="&lt;Path&gt;" class="s3" d="m426 590h-32q0 0 0 0 0 0 0 0h32q0 0 0 0 0 0 0 0z"/>
						<path id="&lt;Path&gt;" class="s3" d="m426 602h-32q0 0 0 0 0 0 0 0h32q0 0 0 0 0 0 0 0z"/>
						<path id="&lt;Path&gt;" class="s3" d="m426 578h-32q0 0 0 0 0 0 0 0h32q0 0 0 0 0 0 0 0z"/>
					</g>
				</g>
				<g id="&lt;Group&gt;">
					<path id="&lt;Path&gt;" class="s3" d="m378 594v16h-16z"/>
					<path id="&lt;Path&gt;" class="s3" d="m458 610h-16v-16z"/>
				</g>
			</g>
			<path id="&lt;Path&gt;" class="s3" d="m458 642h-96v-32h96z"/>
		</g>
		<g id="&lt;Group&gt;">
			<g id="&lt;Group&gt;">
				<g id="&lt;Group&gt;">
					<path id="&lt;Path&gt;" class="s3" d="m458 381.5h-15.4v-3.8c0-4.3 3.5-7.7 7.7-7.7 4.3 0 7.7 3.4 7.7 7.7z"/>
					<path id="&lt;Path&gt;" class="s3" d="m420.7 446.5l4.2 4.1h-51.4v-69.1c0-6.3 5.2-11.5 11.5-11.5h65.3c-4.2 0-7.7 3.4-7.7 7.7v3.8 51l-0.7-1.4c-1.3-2.6-4.9-2.6-6.2 0l-3.3 6.5c-0.5 1.1-1.4 1.8-2.6 1.9l-7.2 1.1c-2.9 0.4-4 3.9-1.9 5.9z"/>
					<path id="&lt;Path&gt;" class="s3" d="m425.7 461.9q0 0.1 0 0.3h-56c-4.3 0-7.7-3.5-7.7-7.7v-3.9h62.9l1 1c0.8 0.8 1.2 2 1 3.1z"/>
				</g>
				<g id="&lt;Group&gt;">
					<path id="&lt;Path&gt;" class="s3" d="m427.3 393.1h-38.4q0 0 0-0.1 0 0 0 0h38.4q0 0 0 0 0 0.1 0 0.1z"/>
					<path id="&lt;Path&gt;" class="s3" d="m408.1 404.6h-19.2q0 0 0 0 0-0.1 0-0.1h19.2q0 0 0 0.1 0 0 0 0z"/>
					<path id="&lt;Path&gt;" class="s3" d="m427.3 416.1h-38.4q0 0 0 0 0 0 0 0h38.4q0 0 0 0 0 0 0 0z"/>
					<path id="&lt;Path&gt;" class="s3" d="m408.1 427.6h-19.2q0 0 0 0 0 0 0 0h19.2q0 0 0 0 0 0 0 0z"/>
				</g>
			</g>
			<path id="&lt;Path&gt;" class="s3" d="m437.2 462.2l-6.5 3.4c-2.5 1.3-5.5-0.8-5-3.7l1.2-7.2c0.2-1.1-0.2-2.3-1-3.1l-5.2-5.1c-2.1-2-1-5.5 1.9-5.9l7.2-1.1c1.2-0.1 2.1-0.8 2.6-1.9l3.3-6.5c1.3-2.6 4.9-2.6 6.2 0l3.3 6.5c0.5 1.1 1.4 1.8 2.6 1.9l7.2 1.1c2.9 0.4 4 3.9 1.9 5.9l-5.2 5.1c-0.8 0.8-1.2 2-1 3.1l1.2 7.2c0.5 2.9-2.5 5-5 3.7l-6.5-3.4c-1-0.5-2.2-0.5-3.2 0z"/>
		</g>
		<g id="&lt;Group&gt;">
			<g id="&lt;Group&gt;">
				<path id="&lt;Path&gt;" class="s3" d="m458 240.1q-0.1 0-0.1-0.1c0-9.9-8.1-17.9-17.9-17.9q-0.1 0-0.1-0.1 0-0.1 0.1-0.1c9.9 0 18 8.1 18 18.1q0 0.1 0 0.1z"/>
				<path id="&lt;Path&gt;" class="s3" d="m406 218.1q-0.1 0-0.1-0.1c0-7.7-6.3-13.9-13.9-13.9-7.7 0-14 6.2-14 13.9q0 0.1 0 0.1-0.1 0-0.1-0.1c0-7.8 6.3-14.1 14.1-14.1 7.7 0 14 6.3 14 14.1q0 0.1 0 0.1z"/>
			</g>
			<g id="&lt;Group&gt;">
				<path id="&lt;Path&gt;" class="s3" d="m410 254h20v22c0 3.3-2.7 6-6 6h-28c-3.3 0-6-2.7-6-6v-36c0-3.3 2.7-6 6-6h14z"/>
				<path id="&lt;Path&gt;" class="s3" d="m430 254h-20v-20z"/>
			</g>
			<path id="&lt;Path&gt;" class="s3" d="m458 240c0 9.9-8.1 18-18 18h-10v-4l-20-20h-14c-3.3 0-6 2.7-6 6v18h-8c-11.1 0-20-9-20-20 0-9.7 6.8-17.8 16-19.6q0-0.2 0-0.4c0-7.7 6.2-14 14-14 2.6 0 5.1 0.7 7.2 2 4.1-7.2 11.9-12 20.8-12 13.2 0 24 10.7 24 24q-0.1 2.2-0.5 4.4c8.2 1.6 14.5 8.9 14.5 17.6z"/>
		</g>
		<g id="&lt;Group&gt;">
			<g id="&lt;Group&gt;">
				<path id="&lt;Path&gt;" class="s3" d="m458.1 58c0 12.8-5 24.9-14.1 34-9.1 9.1-21.1 14.1-34 14.1-12.9 0-24.9-5-34-14.1l-9.4-9.4 0.1 13-0.2 0.1h-0.1l-0.1-0.2v-13.2h-0.1l0.1-0.1v-0.1l0.2-0.1h13.4l0.1 0.2v0.1l-0.2 0.1h-12.9l9.4 9.3c9 9 20.9 14 33.7 14 12.8 0 24.7-5 33.7-14 9-9 14-21 14-33.7v-0.1l0.2-0.1h0.1z"/>
				<path id="&lt;Path&gt;" class="s3" d="m376.3 24.3c-9 9-14 21-14 33.7v0.1l-0.2 0.1h-0.1l-0.1-0.2c0-12.8 5-24.9 14.1-34 9.1-9.1 21.1-14.1 34-14.1 12.9 0 24.9 5 34 14.1l9.4 9.4-0.1-13 0.2-0.1h0.1l0.1 0.2v13.2h0.1l-0.1 0.1v0.1l-0.2 0.1h-13.4l-0.1-0.2v-0.1l0.2-0.1h12.9l-9.4-9.3c-9-9-20.9-14-33.7-14-12.8 0-24.7 5-33.7 14z"/>
			</g>
			<g id="&lt;Group&gt;">
				<path id="&lt;Path&gt;" class="s3" d="m412 54h20v22c0 3.3-2.7 6-6 6h-28c-3.3 0-6-2.7-6-6v-36c0-3.3 2.7-6 6-6h14z"/>
				<path id="&lt;Path&gt;" class="s3" d="m432 54h-20v-20z"/>
			</g>
		</g>
	</g>
</svg>