<?xml version="1.0" standalone="no"?>
<!DOCTYPE svg PUBLIC "-//W3C//DTD SVG 20010904//EN"
 "http://www.w3.org/TR/2001/REC-SVG-20010904/DTD/svg10.dtd">
<svg version="1.0" xmlns="http://www.w3.org/2000/svg"
 width="128.000000pt" height="128.000000pt" viewBox="0 0 128.000000 128.000000"
 preserveAspectRatio="xMidYMid meet">

<g transform="translate(0.000000,128.000000) scale(0.100000,-0.100000)"
fill="#000000" stroke="none">
<path d="M365 1251 c-72 -33 -115 -102 -115 -184 l0 -43 73 19 c58 16 104 20
237 20 133 0 179 -4 238 -20 l72 -19 0 43 c0 82 -43 151 -115 184 -59 27 -331
27 -390 0z m260 -91 c0 -24 -3 -25 -63 -28 -49 -2 -64 0 -68 13 -14 35 3 46
68 43 60 -3 63 -4 63 -28z"/>
<path d="M390 1025 c-128 -25 -135 -28 -133 -59 2 -34 17 -52 56 -73 26 -13
42 -14 125 -3 87 12 176 10 302 -6 37 -5 51 -1 79 18 36 24 60 73 44 89 -18
18 -162 41 -278 45 -79 2 -146 -2 -195 -11z"/>
<path d="M469 866 c-4 -4 -42 -9 -85 -11 l-79 -5 2 -94 c2 -107 18 -151 79
-210 70 -68 178 -95 251 -64 59 25 120 78 147 128 24 44 28 62 29 146 l2 96
-50 3 c-27 1 -104 6 -170 10 -66 4 -123 4 -126 1z m-14 -56 c0 -18 -6 -26 -23
-28 -24 -4 -38 18 -28 44 3 9 15 14 28 12 17 -2 23 -10 23 -28z m260 0 c0 -18
-6 -26 -23 -28 -24 -4 -38 18 -28 44 3 9 15 14 28 12 17 -2 23 -10 23 -28z
m-128 -16 c3 -8 1 -25 -4 -37 -7 -15 -7 -27 0 -38 18 -29 1 -49 -43 -49 -54 0
-60 19 -27 86 27 55 60 73 74 38z m23 -184 c0 -20 -48 -34 -75 -22 -40 18 -29
32 25 32 28 0 50 -5 50 -10z"/>
<path d="M242 838 c-18 -18 -14 -79 8 -115 11 -18 22 -33 25 -33 3 0 5 36 5
80 0 81 -9 97 -38 68z"/>
<path d="M840 770 c0 -44 2 -80 5 -80 3 0 14 15 25 33 33 53 23 127 -17 127
-10 0 -13 -21 -13 -80z"/>
<path d="M907 534 c-4 -4 -7 -16 -7 -26 0 -25 -26 -33 -56 -18 -23 13 -27 11
-64 -25 -22 -22 -40 -45 -40 -52 0 -15 -2 -15 -24 -7 -10 4 -16 18 -16 35 0
33 -4 34 -53 14 -46 -19 -128 -19 -174 0 -49 21 -53 19 -53 -15 0 -23 -5 -31
-25 -36 -14 -4 -25 -10 -23 -14 2 -5 45 -45 96 -90 l93 -82 82 73 c129 114
120 108 116 79 -3 -16 -12 -26 -29 -30 -23 -6 -25 -10 -25 -70 0 -60 2 -65 23
-68 30 -4 38 -27 22 -58 -13 -23 -11 -27 25 -64 42 -43 56 -48 75 -25 16 19
47 3 52 -27 3 -21 9 -23 66 -26 62 -3 62 -3 68 27 7 33 37 47 55 25 18 -22 32
-17 72 24 40 41 44 54 23 71 -22 18 -8 48 25 55 30 6 30 6 27 68 -3 57 -5 63
-26 66 -30 5 -46 36 -27 52 23 19 18 33 -25 75 -37 36 -41 38 -64 25 -31 -16
-54 -8 -58 22 -3 21 -9 23 -63 26 -34 2 -64 0 -68 -4z m131 -200 c31 -36 30
-97 -3 -129 -33 -34 -93 -34 -132 -1 -22 19 -28 33 -28 64 0 90 104 133 163
66z"/>
<path d="M195 343 c-60 -19 -120 -40 -132 -48 -31 -21 -43 -74 -43 -192 l0
-103 425 0 c360 0 425 2 425 14 0 12 -5 12 -30 3 -28 -11 -32 -9 -80 38 -49
48 -63 86 -39 101 6 3 -2 14 -20 25 -23 14 -30 26 -33 55 l-3 37 -52 -47 -53
-48 -114 101 c-62 56 -120 100 -127 100 -8 -1 -63 -17 -124 -36z"/>
</g>
</svg>
