<?xml version="1.0" standalone="no"?>
<!DOCTYPE svg PUBLIC "-//W3C//DTD SVG 20010904//EN"
 "http://www.w3.org/TR/2001/REC-SVG-20010904/DTD/svg10.dtd">
<svg version="1.0" xmlns="http://www.w3.org/2000/svg"
 width="128.000000pt" height="128.000000pt" viewBox="0 0 128.000000 128.000000"
 preserveAspectRatio="xMidYMid meet">

<g transform="translate(0.000000,128.000000) scale(0.100000,-0.100000)"
fill="#000000" stroke="none">
<path d="M120 1090 l0 -150 300 0 300 0 0 150 0 150 -300 0 -300 0 0 -150z
m80 -38 c0 -83 -5 -99 -27 -81 -8 8 -13 35 -13 79 0 69 4 80 27 80 10 0 13
-20 13 -78z"/>
<path d="M120 470 l0 -430 193 2 192 3 3 399 c2 305 5 402 15 408 6 4 54 8
105 8 85 0 92 1 92 20 0 20 -7 20 -300 20 l-300 0 0 -430z m80 319 c0 -71 -2
-80 -17 -77 -15 3 -19 16 -21 72 -3 66 9 103 29 90 5 -3 9 -41 9 -85z"/>
<path d="M550 770 c0 -38 2 -40 30 -40 28 0 30 2 30 40 0 38 -2 40 -30 40 -28
0 -30 -2 -30 -40z"/>
<path d="M650 770 l0 -40 250 0 250 0 0 40 0 40 -250 0 -250 0 0 -40z m130 0
c0 -16 -7 -20 -34 -20 -36 0 -52 12 -41 30 3 6 22 10 41 10 27 0 34 -4 34 -20z
m105 0 c0 -10 -12 -16 -37 -18 -33 -3 -38 0 -38 18 0 18 5 21 38 18 25 -2 37
-8 37 -18z"/>
<path d="M550 360 l0 -320 300 0 300 0 0 320 0 320 -300 0 -300 0 0 -320z
m349 209 c106 -24 181 -119 181 -228 -1 -176 -180 -284 -338 -205 -148 74
-173 272 -48 381 31 28 65 44 121 56 32 7 38 7 84 -4z"/>
<path d="M758 510 c-62 -33 -92 -82 -96 -159 -3 -59 0 -71 26 -112 109 -169
372 -73 349 127 -14 127 -165 204 -279 144z m112 -31 c0 -4 -19 -13 -41 -19
-52 -14 -85 -47 -99 -99 -6 -22 -17 -41 -24 -41 -47 0 -10 117 49 156 49 32
115 34 115 3z"/>
</g>
</svg>
