<?xml version="1.0" standalone="no"?>
<!DOCTYPE svg PUBLIC "-//W3C//DTD SVG 20010904//EN"
 "http://www.w3.org/TR/2001/REC-SVG-20010904/DTD/svg10.dtd">
<svg version="1.0" xmlns="http://www.w3.org/2000/svg"
 width="128.000000pt" height="128.000000pt" viewBox="0 0 128.000000 128.000000"
 preserveAspectRatio="xMidYMid meet">

<g transform="translate(0.000000,128.000000) scale(0.100000,-0.100000)"
fill="#000000" stroke="none">
<path d="M752 1224 c-18 -13 -22 -25 -22 -72 0 -64 -10 -88 -34 -79 -11 5 -16
19 -16 52 0 38 -3 45 -19 45 -33 0 -34 -17 -10 -106 l24 -85 115 3 114 3 23
78 c23 83 22 107 -8 107 -14 0 -18 -9 -21 -47 -3 -40 -6 -48 -23 -48 -18 0
-21 8 -25 68 -4 53 -10 72 -24 83 -25 18 -46 18 -74 -2z"/>
<path d="M647 934 c-4 -4 -7 -13 -7 -21 0 -11 28 -13 148 -11 123 3 147 5 147
18 0 12 -24 15 -141 18 -77 1 -143 -1 -147 -4z"/>
<path d="M597 790 c-64 -67 -116 -163 -120 -225 l-2 -39 135 -22 c171 -28 160
-29 160 4 0 20 -7 30 -29 40 -17 7 -37 28 -47 50 -15 32 -15 40 -3 75 9 24 25
45 44 55 16 10 35 24 42 32 12 13 15 13 27 -2 7 -10 17 -18 23 -18 15 0 60
-53 65 -76 3 -12 2 -27 -2 -34 -11 -18 -40 -5 -40 18 0 10 -9 27 -20 37 -20
18 -20 17 -20 -48 0 -49 4 -67 13 -67 19 0 63 -51 71 -82 4 -17 16 -29 35 -36
16 -6 37 -22 46 -36 l17 -26 39 22 c64 36 79 55 79 97 0 95 -63 224 -145 300
l-45 41 -132 0 -132 0 -59 -60z"/>
<path d="M748 686 c-10 -10 -18 -30 -18 -46 0 -16 8 -36 18 -46 16 -17 17 -16
20 14 2 18 2 46 0 64 -3 30 -4 31 -20 14z"/>
<path d="M810 502 c0 -25 4 -32 20 -32 11 0 20 6 20 13 0 8 -9 22 -20 32 -20
18 -20 17 -20 -13z"/>
<path d="M320 450 c-71 -38 -79 -40 -166 -40 -66 0 -95 -4 -103 -14 -8 -9 -11
-47 -9 -107 l3 -94 110 -5 c103 -5 124 -10 331 -78 139 -45 229 -70 240 -65
21 7 501 369 510 384 6 10 -13 39 -26 39 -3 0 -96 -57 -206 -126 -205 -130
-246 -154 -262 -154 -5 0 -40 24 -77 53 -61 47 -75 53 -129 57 -45 4 -61 9
-61 20 0 13 35 16 230 20 127 3 231 7 233 8 7 6 0 52 -9 58 -12 7 -483 84
-514 84 -11 -1 -54 -19 -95 -40z"/>
<path d="M700 270 c19 -16 41 -30 48 -30 13 0 92 47 92 55 0 3 -39 5 -87 5
l-88 -1 35 -29z"/>
</g>
</svg>
